<svg xmlns="http://www.w3.org/2000/svg" viewBox="0 0 64 64">
  <defs>
    <radialGradient id="g" cx="35%" cy="30%" r="70%">
      <stop offset="0%" stop-color="#ffffff"/>
      <stop offset="100%" stop-color="#e9eef5"/>
    </radialGradient>
  </defs>
  <circle cx="32" cy="32" r="30" fill="url(#g)" stroke="#0f172a" stroke-width="3"/>
  <polygon points="32,16 22,23 26,35 38,35 42,23" fill="#111827"/>
  <polygon points="18,24 10,30 14,42 25,36" fill="#111827"/>
  <polygon points="46,24 39,36 50,42 54,30" fill="#111827"/>
  <polygon points="18,46 29,39 35,48 24,54" fill="#111827"/>
  <polygon points="46,46 40,39 29,48 40,54" fill="#111827"/>
  <path d="M32 16 L22 23 M32 16 L42 23 M26 35 L18 24 M38 35 L46 24 M25 36 L18 46 M39 36 L46 46 M29 48 L26 35 M35 48 L38 35" stroke="#111827" stroke-width="2.2" fill="none" stroke-linecap="round"/>
</svg>